<?xml version="1.0" encoding="utf-8"?>
<svg xmlns="http://www.w3.org/2000/svg" height="128" width="128" viewBox="0 0 128 128">
  <g>
    <path id="path1" transform="rotate(0,64,64) translate(30,44.0250008106232) scale(2.125,2.125)  " fill="#7986CB" d="M24.299988,12.099996L28.700012,12.099996 28.700012,15.399999 24.299988,15.399999z M8.7999878,12.099996L23.099976,12.099996 23.099976,15.399999 8.7999878,15.399999z M3.2999878,12.099996L7.7000122,12.099996 7.7000122,15.399999 3.2999878,15.399999z M25.399963,7.6999957L28.700012,7.6999957 28.700012,10.999998 25.399963,10.999998z M21,7.6999957L24.299988,7.6999957 24.299988,10.999998 21,10.999998z M16.5,7.6999957L19.799988,7.6999957 19.799988,10.999998 16.5,10.999998z M12.099976,7.6999957L15.399963,7.6999957 15.399963,10.999998 12.099976,10.999998z M7.7000122,7.6999957L11,7.6999957 11,10.999998 7.7000122,10.999998z M3.2999878,7.6999957L6.5999756,7.6999957 6.5999756,10.999998 3.2999878,10.999998z M25.399963,3.300002L28.700012,3.300002 28.700012,6.5999972 25.399963,6.5999972z M21,3.300002L24.299988,3.300002 24.299988,6.5999972 21,6.5999972z M16.5,3.300002L19.799988,3.300002 19.799988,6.5999972 16.5,6.5999972z M12.099976,3.300002L15.399963,3.300002 15.399963,6.5999972 12.099976,6.5999972z M7.7000122,3.300002L11,3.300002 11,6.5999972 7.7000122,6.5999972z M3.2999878,3.300002L6.5999756,3.300002 6.5999756,6.5999972 3.2999878,6.5999972z M2.2000122,2.1999964L2.2000122,16.599996 29.799988,16.599996 29.799988,2.1999964z M0.70001221,5.6843419E-14L31.399963,5.6843419E-14C31.700012,-1.4528626E-07,32,0.30000284,32,0.6999965L32,18.099996C32,18.499997,31.700012,18.8,31.299988,18.8L0.70001221,18.8C0.29998779,18.8,0,18.499997,0,18.099996L0,0.6999965C0,0.30000284,0.29998779,-1.4528626E-07,0.70001221,5.6843419E-14z" />
  </g>
</svg>

