<?xml version="1.0" encoding="utf-8"?>
<svg xmlns="http://www.w3.org/2000/svg" height="48" width="48" viewBox="0 0 48 48">
  <g>
    <path id="path1" transform="rotate(0,24,24) translate(11,15.836379274193) scale(0.235030016397503,0.235030016397503)  " fill="#DCDBDB" d="M38.71875,35.2495803833008L43.2949180603027,35.4224319458008 47.4609336853027,35.9409866333008 51.2167930603027,36.8052444458008 54.5625,38.0152053833008 54.5625,46.4058303833008 50.859375,44.642162322998 46.96875,43.382396697998 42.890625,42.626537322998 38.625,42.3745803833008 33.10986328125,42.857982635498 28.1425762176514,44.308177947998 23.7231426239014,46.725170135498 19.8515625,50.1089553833008 16.70361328125,54.3013381958008 14.4550771713257,59.1441116333008 13.1059560775757,64.6372756958008 12.65625,70.7808303833008 13.0766592025757,76.6094436645508 14.3378896713257,81.8140335083008 16.43994140625,86.3945999145508 19.3828125,90.3511428833008 23.0082988739014,93.5401077270508 27.1582012176514,95.8179397583008 31.8325176239014,97.1846389770508 37.03125,97.6402053833008 41.923828125,97.3589553833008 46.4765625,96.5152053833008 50.689453125,95.1089553833008 54.5625,93.1402053833008 54.5625,100.780830383301 50.607421875,102.503486633301 46.1953125,103.733955383301 41.326171875,104.472236633301 36,104.718330383301 29.185546875,104.141181945801 23.0859375,102.409736633301 17.701171875,99.5239944458008 13.03125,95.4839553833008 9.2578125,90.5064163208008 6.5625,84.8081741333008 4.9453125,78.3892288208008 4.40625047683716,71.2495803833008 5.0126953125,63.573802947998 6.83203125,56.671459197998 9.8642578125,50.542552947998 14.109375,45.1870803833008 19.2861328125,40.8394241333008 25.11328125,37.7339553833008 31.5908203125,35.8706741333008 38.71875,35.2495803833008z M68.2491683959961,36.3745803833008L76.1241683959961,36.3745803833008 76.1241683959961,67.9683303833008 76.3116683959961,67.9683303833008 78.0929183959961,65.6714553833008 103.217918395996,36.3745803833008 113.014793395996,36.3745803833008 84.1866683959961,68.6245803833008 115.030418395996,103.593330383301 104.061668395996,103.593330383301 78.0929183959961,72.8433303833008 76.9210433959961,71.3902053833008 76.3116683959961,70.4995803833008 76.1241683959961,70.4995803833008 76.1241683959961,103.593330383301 68.2491683959961,103.593330383301 68.2491683959961,36.3745803833008z" />
  </g>
</svg>

