<?xml version="1.0" encoding="utf-8"?>
<svg xmlns="http://www.w3.org/2000/svg" height="128" width="128" viewBox="0 0 128 128">
  <g>
    <path id="path1" transform="rotate(0,64,64) translate(37.0124983787537,30) scale(2.125,2.125)  " fill="#7986CB" d="M12.699992,17.800003L13.799998,21.300003 17.400002,21.300003 14.499995,23.399994 15.6,26.899994 12.699992,24.800003 9.7999992,26.899994 10.900005,23.399994 7.9999971,21.300003 11.600002,21.300003z M12.699992,16.899994C9.4000062,16.899994 6.6999945,19.600006 6.6999945,22.899994 6.6999945,26.199997 9.4000062,28.899994 12.699992,28.899994 15.999994,28.899994 18.69999,26.199997 18.69999,22.899994 18.69999,19.600006 15.999994,16.899994 12.699992,16.899994z M12.699992,13.800003C17.69999,13.800003 21.799994,17.899994 21.799994,22.899994 21.799994,27.899994 17.69999,32 12.699992,32 7.699994,32 3.6000049,27.899994 3.6000046,22.899994 3.6000049,17.899994 7.699994,13.800003 12.699992,13.800003z M21.099999,0.1000061L25.400001,5.3000031 19.400002,14.100006C17.69999,12.800003,15.6,11.899994,13.400004,11.800003z M5.999998,0L19.400002,0 15.299997,6.1999969 9.9999961,6.1999969z M4.3000016,0L11.999996,11.699997C9.6999931,11.800003,7.6000037,12.699997,5.9000072,14L0,5.1999969z" />
  </g>
</svg>

