<?xml version="1.0" encoding="utf-8"?>
<svg xmlns="http://www.w3.org/2000/svg" height="128" width="128" viewBox="0 0 128 128">
  <g>
    <path id="path1" transform="rotate(0,64,64) translate(30,37.3674094676791) scale(2.125,2.125)  " fill="#7986CB" d="M17.533997,12.27571C17.95401,12.397722 18.255005,12.571737 18.444,12.79574 18.623001,13.025725 18.714996,13.290744 18.714996,13.601724 18.714996,13.95372 18.608002,14.254752 18.388,14.515744 18.167999,14.770753 17.887009,14.933781 17.533997,14.999761z M16.520004,7.5676125L16.520004,9.9856886C16.220001,9.8526596 15.990997,9.6846575 15.843002,9.4706644 15.695999,9.2616457 15.62001,9.0316604 15.62001,8.7816557 15.62001,8.5116314 15.701004,8.2666315 15.863998,8.0416511 16.027008,7.8226227 16.24501,7.6596249 16.520004,7.5676125z M16.52301,5.3555955L16.52301,6.0446037C15.722,6.1266064 15.078003,6.4226021 14.598007,6.9436077 14.117996,7.4646138 13.873001,8.1026262 13.873001,8.8686632 13.873001,9.624659 14.087997,10.262672 14.511002,10.793687 14.940002,11.319699 15.609009,11.718693 16.52301,11.978708L16.52301,14.904788C16.27301,14.78174 16.042999,14.587766 15.839005,14.317742 15.63501,14.04674 15.492004,13.724774 15.419998,13.352757L13.597,13.54673C13.735001,14.465755 14.057007,15.174753 14.557007,15.680805 15.063004,16.180813 15.71701,16.482821 16.52301,16.579808L16.52301,17.850829 17.533997,17.850829 17.533997,16.543797C18.443008,16.415804 19.153,16.058802 19.664001,15.481765 20.173996,14.904788 20.429001,14.194753 20.429001,13.352757 20.429001,12.5967 20.225006,11.978708 19.817001,11.498718 19.41301,11.013724 18.653,10.625716 17.533997,10.318673L17.533997,7.5876325C17.988998,7.7866415,18.264008,8.1586279,18.372009,8.7056345L20.143997,8.4756502C20.020996,7.7756246 19.740005,7.2196139 19.30101,6.8056048 18.867004,6.3875974 18.275009,6.1316112 17.533997,6.0446037L17.533997,5.3555955z M0.75,4.130566L1.0209961,19.970864C4.5189972,16.335785 12.428009,19.04183 15.680008,20.670889 25.033997,25.342976 29.818008,22.708893 31.507996,21.273867L31.507996,22.273886C31.507996,22.273886 27.056,28.46303 14.949997,22.41189 11.697006,20.788874 3.7880096,18.08185 0.29100037,21.717907L0,4.3915571C0,4.3915571,0.26499939,4.2785791,0.75,4.130566z M7.0570068,0.00048227799C10.070999,-0.021521288 14.136002,0.70249153 18.570999,3.5935379 21.393997,5.4375976 27.725998,9.5636534 32,2.3425375L31.811005,19.11184C31.811005,19.11184 27.486008,25.249956 15.956009,19.076865 12.852005,17.4168 5.3150024,14.628783 1.9199982,18.223822L1.8330078,0.89249773C1.8330078,0.89249761,3.848999,0.023492998,7.0570068,0.00048227799z" />
  </g>
</svg>

