<?xml version="1.0" encoding="utf-8"?>
<svg xmlns="http://www.w3.org/2000/svg" height="128" width="128" viewBox="0 0 128 128">
  <g>
    <path id="path1" transform="rotate(0,64,64) translate(30,37.957081079483) scale(2.125,2.125)  " fill="#DCDBDB" d="M2.4720154,14.326938C3.1459961,14.326938 3.6910095,14.872958 3.6910095,15.54593 3.6910095,16.21994 3.1459961,16.765959 2.4720154,16.765959 1.7980042,16.765959 1.2520142,16.21994 1.2520142,15.54593 1.2520142,14.872958 1.7980042,14.326938 2.4720154,14.326938z M10.628998,11.973976C8.322998,16.979948 11.529022,20.185936 11.529022,20.185936 16.591003,25.977917 21.033997,19.565943 21.033997,19.565943 23.733002,15.966949 21.484009,11.973976 21.484009,11.973976 22.946014,11.973976 25.026001,13.098974 25.026001,13.098974 24.746002,19.565943 27.163025,21.366964 27.163025,21.366964L21.652008,21.871967C15.296997,27.776924 10.572998,21.927936 10.572998,21.927936 10.011017,21.984943 4.7799988,21.19692 4.7799988,21.19692 7.7050171,19.228967 7.0859985,13.098974 7.0859985,13.098974 8.2109985,12.367958 10.628998,11.973976 10.628998,11.973976z M2.007019,7.0089591L2.8200073,7.0089591 2.8200073,14.326938 2.4720154,14.326938 2.007019,14.326938z M15.972015,0L32,4.1049726 24.800995,6.0169566 24.744995,6.0169566 24.744995,10.853984C24.744995,10.853984 21.089996,9.0539377 16.028015,11.078958 16.028015,11.078958 12.654022,8.8859699 7.3110046,10.965982L7.3110046,6.0169566 7.2550049,6.0169566 0,4.1610029z" />
  </g>
</svg>

